<?xml version="1.0" encoding="utf-8" standalone="no"?>
<!DOCTYPE svg PUBLIC "-//W3C//DTD SVG 1.1//EN"
  "http://www.w3.org/Graphics/SVG/1.1/DTD/svg11.dtd">
<svg xmlns:xlink="http://www.w3.org/1999/xlink" width="360pt" height="360pt" viewBox="0 0 360 360" xmlns="http://www.w3.org/2000/svg" version="1.1">
 <metadata>
  <rdf:RDF xmlns:dc="http://purl.org/dc/elements/1.1/" xmlns:cc="http://creativecommons.org/ns#" xmlns:rdf="http://www.w3.org/1999/02/22-rdf-syntax-ns#">
   <cc:Work>
    <dc:type rdf:resource="http://purl.org/dc/dcmitype/StillImage"/>
    <dc:date>2024-02-15T15:27:44.697403</dc:date>
    <dc:format>image/svg+xml</dc:format>
    <dc:creator>
     <cc:Agent>
      <dc:title>Matplotlib v3.7.2, https://matplotlib.org/</dc:title>
     </cc:Agent>
    </dc:creator>
   </cc:Work>
  </rdf:RDF>
 </metadata>
 <defs>
  <style type="text/css">*{stroke-linejoin: round; stroke-linecap: butt}</style>
 </defs>
 <g id="figure_1">
  <g id="patch_1">
   <path d="M 0 360 
L 360 360 
L 360 0 
L 0 0 
z
" style="fill: #ffffff"/>
  </g>
  <g id="axes_1">
   <g id="patch_2">
    <path d="M 51.05 317.93875 
L 349.2 317.93875 
L 349.2 10.8 
L 51.05 10.8 
z
" style="fill: #ffffff"/>
   </g>
   <g id="patch_3">
    <path d="M 64.602273 317.93875 
L 68.077214 317.93875 
L 68.077214 317.57402 
L 64.602273 317.57402 
z
" clip-path="url(#p516696e1d8)" style="fill: #1f77b4; fill-opacity: 0.75; stroke: #000000; stroke-width: 0.358397; stroke-linejoin: miter"/>
   </g>
   <g id="patch_4">
    <path d="M 68.077214 317.93875 
L 71.552156 317.93875 
L 71.552156 317.57402 
L 68.077214 317.57402 
z
" clip-path="url(#p516696e1d8)" style="fill: #1f77b4; fill-opacity: 0.75; stroke: #000000; stroke-width: 0.358397; stroke-linejoin: miter"/>
   </g>
   <g id="patch_5">
    <path d="M 71.552156 317.93875 
L 75.027098 317.93875 
L 75.027098 317.93875 
L 71.552156 317.93875 
z
" clip-path="url(#p516696e1d8)" style="fill: #1f77b4; fill-opacity: 0.75; stroke: #000000; stroke-width: 0.358397; stroke-linejoin: miter"/>
   </g>
   <g id="patch_6">
    <path d="M 75.027098 317.93875 
L 78.50204 317.93875 
L 78.50204 317.93875 
L 75.027098 317.93875 
z
" clip-path="url(#p516696e1d8)" style="fill: #1f77b4; fill-opacity: 0.75; stroke: #000000; stroke-width: 0.358397; stroke-linejoin: miter"/>
   </g>
   <g id="patch_7">
    <path d="M 78.50204 317.93875 
L 81.976981 317.93875 
L 81.976981 317.93875 
L 78.50204 317.93875 
z
" clip-path="url(#p516696e1d8)" style="fill: #1f77b4; fill-opacity: 0.75; stroke: #000000; stroke-width: 0.358397; stroke-linejoin: miter"/>
   </g>
   <g id="patch_8">
    <path d="M 81.976981 317.93875 
L 85.451923 317.93875 
L 85.451923 317.93875 
L 81.976981 317.93875 
z
" clip-path="url(#p516696e1d8)" style="fill: #1f77b4; fill-opacity: 0.75; stroke: #000000; stroke-width: 0.358397; stroke-linejoin: miter"/>
   </g>
   <g id="patch_9">
    <path d="M 85.451923 317.93875 
L 88.926865 317.93875 
L 88.926865 317.93875 
L 85.451923 317.93875 
z
" clip-path="url(#p516696e1d8)" style="fill: #1f77b4; fill-opacity: 0.75; stroke: #000000; stroke-width: 0.358397; stroke-linejoin: miter"/>
   </g>
   <g id="patch_10">
    <path d="M 88.926865 317.93875 
L 92.401807 317.93875 
L 92.401807 317.93875 
L 88.926865 317.93875 
z
" clip-path="url(#p516696e1d8)" style="fill: #1f77b4; fill-opacity: 0.75; stroke: #000000; stroke-width: 0.358397; stroke-linejoin: miter"/>
   </g>
   <g id="patch_11">
    <path d="M 92.401807 317.93875 
L 95.876748 317.93875 
L 95.876748 317.93875 
L 92.401807 317.93875 
z
" clip-path="url(#p516696e1d8)" style="fill: #1f77b4; fill-opacity: 0.75; stroke: #000000; stroke-width: 0.358397; stroke-linejoin: miter"/>
   </g>
   <g id="patch_12">
    <path d="M 95.876748 317.93875 
L 99.35169 317.93875 
L 99.35169 317.93875 
L 95.876748 317.93875 
z
" clip-path="url(#p516696e1d8)" style="fill: #1f77b4; fill-opacity: 0.75; stroke: #000000; stroke-width: 0.358397; stroke-linejoin: miter"/>
   </g>
   <g id="patch_13">
    <path d="M 99.35169 317.93875 
L 102.826632 317.93875 
L 102.826632 317.93875 
L 99.35169 317.93875 
z
" clip-path="url(#p516696e1d8)" style="fill: #1f77b4; fill-opacity: 0.75; stroke: #000000; stroke-width: 0.358397; stroke-linejoin: miter"/>
   </g>
   <g id="patch_14">
    <path d="M 102.826632 317.93875 
L 106.301573 317.93875 
L 106.301573 317.93875 
L 102.826632 317.93875 
z
" clip-path="url(#p516696e1d8)" style="fill: #1f77b4; fill-opacity: 0.75; stroke: #000000; stroke-width: 0.358397; stroke-linejoin: miter"/>
   </g>
   <g id="patch_15">
    <path d="M 106.301573 317.93875 
L 109.776515 317.93875 
L 109.776515 317.93875 
L 106.301573 317.93875 
z
" clip-path="url(#p516696e1d8)" style="fill: #1f77b4; fill-opacity: 0.75; stroke: #000000; stroke-width: 0.358397; stroke-linejoin: miter"/>
   </g>
   <g id="patch_16">
    <path d="M 109.776515 317.93875 
L 113.251457 317.93875 
L 113.251457 317.93875 
L 109.776515 317.93875 
z
" clip-path="url(#p516696e1d8)" style="fill: #1f77b4; fill-opacity: 0.75; stroke: #000000; stroke-width: 0.358397; stroke-linejoin: miter"/>
   </g>
   <g id="patch_17">
    <path d="M 113.251457 317.93875 
L 116.726399 317.93875 
L 116.726399 317.93875 
L 113.251457 317.93875 
z
" clip-path="url(#p516696e1d8)" style="fill: #1f77b4; fill-opacity: 0.75; stroke: #000000; stroke-width: 0.358397; stroke-linejoin: miter"/>
   </g>
   <g id="patch_18">
    <path d="M 116.726399 317.93875 
L 120.20134 317.93875 
L 120.20134 317.93875 
L 116.726399 317.93875 
z
" clip-path="url(#p516696e1d8)" style="fill: #1f77b4; fill-opacity: 0.75; stroke: #000000; stroke-width: 0.358397; stroke-linejoin: miter"/>
   </g>
   <g id="patch_19">
    <path d="M 120.20134 317.93875 
L 123.676282 317.93875 
L 123.676282 317.93875 
L 120.20134 317.93875 
z
" clip-path="url(#p516696e1d8)" style="fill: #1f77b4; fill-opacity: 0.75; stroke: #000000; stroke-width: 0.358397; stroke-linejoin: miter"/>
   </g>
   <g id="patch_20">
    <path d="M 123.676282 317.93875 
L 127.151224 317.93875 
L 127.151224 317.57402 
L 123.676282 317.57402 
z
" clip-path="url(#p516696e1d8)" style="fill: #1f77b4; fill-opacity: 0.75; stroke: #000000; stroke-width: 0.358397; stroke-linejoin: miter"/>
   </g>
   <g id="patch_21">
    <path d="M 127.151224 317.93875 
L 130.626166 317.93875 
L 130.626166 317.93875 
L 127.151224 317.93875 
z
" clip-path="url(#p516696e1d8)" style="fill: #1f77b4; fill-opacity: 0.75; stroke: #000000; stroke-width: 0.358397; stroke-linejoin: miter"/>
   </g>
   <g id="patch_22">
    <path d="M 130.626166 317.93875 
L 134.101107 317.93875 
L 134.101107 317.93875 
L 130.626166 317.93875 
z
" clip-path="url(#p516696e1d8)" style="fill: #1f77b4; fill-opacity: 0.75; stroke: #000000; stroke-width: 0.358397; stroke-linejoin: miter"/>
   </g>
   <g id="patch_23">
    <path d="M 134.101107 317.93875 
L 137.576049 317.93875 
L 137.576049 317.93875 
L 134.101107 317.93875 
z
" clip-path="url(#p516696e1d8)" style="fill: #1f77b4; fill-opacity: 0.75; stroke: #000000; stroke-width: 0.358397; stroke-linejoin: miter"/>
   </g>
   <g id="patch_24">
    <path d="M 137.576049 317.93875 
L 141.050991 317.93875 
L 141.050991 316.479832 
L 137.576049 316.479832 
z
" clip-path="url(#p516696e1d8)" style="fill: #1f77b4; fill-opacity: 0.75; stroke: #000000; stroke-width: 0.358397; stroke-linejoin: miter"/>
   </g>
   <g id="patch_25">
    <path d="M 141.050991 317.93875 
L 144.525932 317.93875 
L 144.525932 317.93875 
L 141.050991 317.93875 
z
" clip-path="url(#p516696e1d8)" style="fill: #1f77b4; fill-opacity: 0.75; stroke: #000000; stroke-width: 0.358397; stroke-linejoin: miter"/>
   </g>
   <g id="patch_26">
    <path d="M 144.525932 317.93875 
L 148.000874 317.93875 
L 148.000874 316.844561 
L 144.525932 316.844561 
z
" clip-path="url(#p516696e1d8)" style="fill: #1f77b4; fill-opacity: 0.75; stroke: #000000; stroke-width: 0.358397; stroke-linejoin: miter"/>
   </g>
   <g id="patch_27">
    <path d="M 148.000874 317.93875 
L 151.475816 317.93875 
L 151.475816 317.209291 
L 148.000874 317.209291 
z
" clip-path="url(#p516696e1d8)" style="fill: #1f77b4; fill-opacity: 0.75; stroke: #000000; stroke-width: 0.358397; stroke-linejoin: miter"/>
   </g>
   <g id="patch_28">
    <path d="M 151.475816 317.93875 
L 154.950758 317.93875 
L 154.950758 317.57402 
L 151.475816 317.57402 
z
" clip-path="url(#p516696e1d8)" style="fill: #1f77b4; fill-opacity: 0.75; stroke: #000000; stroke-width: 0.358397; stroke-linejoin: miter"/>
   </g>
   <g id="patch_29">
    <path d="M 154.950758 317.93875 
L 158.425699 317.93875 
L 158.425699 317.93875 
L 154.950758 317.93875 
z
" clip-path="url(#p516696e1d8)" style="fill: #1f77b4; fill-opacity: 0.75; stroke: #000000; stroke-width: 0.358397; stroke-linejoin: miter"/>
   </g>
   <g id="patch_30">
    <path d="M 158.425699 317.93875 
L 161.900641 317.93875 
L 161.900641 315.385643 
L 158.425699 315.385643 
z
" clip-path="url(#p516696e1d8)" style="fill: #1f77b4; fill-opacity: 0.75; stroke: #000000; stroke-width: 0.358397; stroke-linejoin: miter"/>
   </g>
   <g id="patch_31">
    <path d="M 161.900641 317.93875 
L 165.375583 317.93875 
L 165.375583 316.115102 
L 161.900641 316.115102 
z
" clip-path="url(#p516696e1d8)" style="fill: #1f77b4; fill-opacity: 0.75; stroke: #000000; stroke-width: 0.358397; stroke-linejoin: miter"/>
   </g>
   <g id="patch_32">
    <path d="M 165.375583 317.93875 
L 168.850524 317.93875 
L 168.850524 316.479832 
L 165.375583 316.479832 
z
" clip-path="url(#p516696e1d8)" style="fill: #1f77b4; fill-opacity: 0.75; stroke: #000000; stroke-width: 0.358397; stroke-linejoin: miter"/>
   </g>
   <g id="patch_33">
    <path d="M 168.850524 317.93875 
L 172.325466 317.93875 
L 172.325466 317.209291 
L 168.850524 317.209291 
z
" clip-path="url(#p516696e1d8)" style="fill: #1f77b4; fill-opacity: 0.75; stroke: #000000; stroke-width: 0.358397; stroke-linejoin: miter"/>
   </g>
   <g id="patch_34">
    <path d="M 172.325466 317.93875 
L 175.800408 317.93875 
L 175.800408 309.54997 
L 172.325466 309.54997 
z
" clip-path="url(#p516696e1d8)" style="fill: #1f77b4; fill-opacity: 0.75; stroke: #000000; stroke-width: 0.358397; stroke-linejoin: miter"/>
   </g>
   <g id="patch_35">
    <path d="M 175.800408 317.93875 
L 179.27535 317.93875 
L 179.27535 311.738348 
L 175.800408 311.738348 
z
" clip-path="url(#p516696e1d8)" style="fill: #1f77b4; fill-opacity: 0.75; stroke: #000000; stroke-width: 0.358397; stroke-linejoin: miter"/>
   </g>
   <g id="patch_36">
    <path d="M 179.27535 317.93875 
L 182.750291 317.93875 
L 182.750291 306.267405 
L 179.27535 306.267405 
z
" clip-path="url(#p516696e1d8)" style="fill: #1f77b4; fill-opacity: 0.75; stroke: #000000; stroke-width: 0.358397; stroke-linejoin: miter"/>
   </g>
   <g id="patch_37">
    <path d="M 182.750291 317.93875 
L 186.225233 317.93875 
L 186.225233 309.185241 
L 182.750291 309.185241 
z
" clip-path="url(#p516696e1d8)" style="fill: #1f77b4; fill-opacity: 0.75; stroke: #000000; stroke-width: 0.358397; stroke-linejoin: miter"/>
   </g>
   <g id="patch_38">
    <path d="M 186.225233 317.93875 
L 189.700175 317.93875 
L 189.700175 305.902675 
L 186.225233 305.902675 
z
" clip-path="url(#p516696e1d8)" style="fill: #1f77b4; fill-opacity: 0.75; stroke: #000000; stroke-width: 0.358397; stroke-linejoin: miter"/>
   </g>
   <g id="patch_39">
    <path d="M 189.700175 317.93875 
L 193.175117 317.93875 
L 193.175117 279.642148 
L 189.700175 279.642148 
z
" clip-path="url(#p516696e1d8)" style="fill: #1f77b4; fill-opacity: 0.75; stroke: #000000; stroke-width: 0.358397; stroke-linejoin: miter"/>
   </g>
   <g id="patch_40">
    <path d="M 193.175117 317.93875 
L 196.650058 317.93875 
L 196.650058 312.467807 
L 193.175117 312.467807 
z
" clip-path="url(#p516696e1d8)" style="fill: #1f77b4; fill-opacity: 0.75; stroke: #000000; stroke-width: 0.358397; stroke-linejoin: miter"/>
   </g>
   <g id="patch_41">
    <path d="M 196.650058 317.93875 
L 200.125 317.93875 
L 200.125 289.125116 
L 196.650058 289.125116 
z
" clip-path="url(#p516696e1d8)" style="fill: #1f77b4; fill-opacity: 0.75; stroke: #000000; stroke-width: 0.358397; stroke-linejoin: miter"/>
   </g>
   <g id="patch_42">
    <path d="M 200.125 317.93875 
L 203.599942 317.93875 
L 203.599942 293.8666 
L 200.125 293.8666 
z
" clip-path="url(#p516696e1d8)" style="fill: #1f77b4; fill-opacity: 0.75; stroke: #000000; stroke-width: 0.358397; stroke-linejoin: miter"/>
   </g>
   <g id="patch_43">
    <path d="M 203.599942 317.93875 
L 207.074883 317.93875 
L 207.074883 267.970802 
L 203.599942 267.970802 
z
" clip-path="url(#p516696e1d8)" style="fill: #1f77b4; fill-opacity: 0.75; stroke: #000000; stroke-width: 0.358397; stroke-linejoin: miter"/>
   </g>
   <g id="patch_44">
    <path d="M 207.074883 317.93875 
L 210.549825 317.93875 
L 210.549825 258.852564 
L 207.074883 258.852564 
z
" clip-path="url(#p516696e1d8)" style="fill: #1f77b4; fill-opacity: 0.75; stroke: #000000; stroke-width: 0.358397; stroke-linejoin: miter"/>
   </g>
   <g id="patch_45">
    <path d="M 210.549825 317.93875 
L 214.024767 317.93875 
L 214.024767 234.050955 
L 210.549825 234.050955 
z
" clip-path="url(#p516696e1d8)" style="fill: #1f77b4; fill-opacity: 0.75; stroke: #000000; stroke-width: 0.358397; stroke-linejoin: miter"/>
   </g>
   <g id="patch_46">
    <path d="M 214.024767 317.93875 
L 217.499709 317.93875 
L 217.499709 242.439734 
L 214.024767 242.439734 
z
" clip-path="url(#p516696e1d8)" style="fill: #1f77b4; fill-opacity: 0.75; stroke: #000000; stroke-width: 0.358397; stroke-linejoin: miter"/>
   </g>
   <g id="patch_47">
    <path d="M 217.499709 317.93875 
L 220.97465 317.93875 
L 220.97465 216.543936 
L 217.499709 216.543936 
z
" clip-path="url(#p516696e1d8)" style="fill: #1f77b4; fill-opacity: 0.75; stroke: #000000; stroke-width: 0.358397; stroke-linejoin: miter"/>
   </g>
   <g id="patch_48">
    <path d="M 220.97465 317.93875 
L 224.449592 317.93875 
L 224.449592 189.55395 
L 220.97465 189.55395 
z
" clip-path="url(#p516696e1d8)" style="fill: #1f77b4; fill-opacity: 0.75; stroke: #000000; stroke-width: 0.358397; stroke-linejoin: miter"/>
   </g>
   <g id="patch_49">
    <path d="M 224.449592 317.93875 
L 227.924534 317.93875 
L 227.924534 172.046932 
L 224.449592 172.046932 
z
" clip-path="url(#p516696e1d8)" style="fill: #1f77b4; fill-opacity: 0.75; stroke: #000000; stroke-width: 0.358397; stroke-linejoin: miter"/>
   </g>
   <g id="patch_50">
    <path d="M 227.924534 317.93875 
L 231.399476 317.93875 
L 231.399476 184.083007 
L 227.924534 184.083007 
z
" clip-path="url(#p516696e1d8)" style="fill: #1f77b4; fill-opacity: 0.75; stroke: #000000; stroke-width: 0.358397; stroke-linejoin: miter"/>
   </g>
   <g id="patch_51">
    <path d="M 231.399476 317.93875 
L 234.874417 317.93875 
L 234.874417 140.315461 
L 231.399476 140.315461 
z
" clip-path="url(#p516696e1d8)" style="fill: #1f77b4; fill-opacity: 0.75; stroke: #000000; stroke-width: 0.358397; stroke-linejoin: miter"/>
   </g>
   <g id="patch_52">
    <path d="M 234.874417 317.93875 
L 238.349359 317.93875 
L 238.349359 119.161148 
L 234.874417 119.161148 
z
" clip-path="url(#p516696e1d8)" style="fill: #1f77b4; fill-opacity: 0.75; stroke: #000000; stroke-width: 0.358397; stroke-linejoin: miter"/>
   </g>
   <g id="patch_53">
    <path d="M 238.349359 317.93875 
L 241.824301 317.93875 
L 241.824301 52.415641 
L 238.349359 52.415641 
z
" clip-path="url(#p516696e1d8)" style="fill: #1f77b4; fill-opacity: 0.75; stroke: #000000; stroke-width: 0.358397; stroke-linejoin: miter"/>
   </g>
   <g id="patch_54">
    <path d="M 241.824301 317.93875 
L 245.299242 317.93875 
L 245.299242 158.551939 
L 241.824301 158.551939 
z
" clip-path="url(#p516696e1d8)" style="fill: #1f77b4; fill-opacity: 0.75; stroke: #000000; stroke-width: 0.358397; stroke-linejoin: miter"/>
   </g>
   <g id="patch_55">
    <path d="M 245.299242 317.93875 
L 248.774184 317.93875 
L 248.774184 85.2413 
L 245.299242 85.2413 
z
" clip-path="url(#p516696e1d8)" style="fill: #1f77b4; fill-opacity: 0.75; stroke: #000000; stroke-width: 0.358397; stroke-linejoin: miter"/>
   </g>
   <g id="patch_56">
    <path d="M 248.774184 317.93875 
L 252.249126 317.93875 
L 252.249126 115.878582 
L 248.774184 115.878582 
z
" clip-path="url(#p516696e1d8)" style="fill: #1f77b4; fill-opacity: 0.75; stroke: #000000; stroke-width: 0.358397; stroke-linejoin: miter"/>
   </g>
   <g id="patch_57">
    <path d="M 252.249126 317.93875 
L 255.724068 317.93875 
L 255.724068 79.405627 
L 252.249126 79.405627 
z
" clip-path="url(#p516696e1d8)" style="fill: #1f77b4; fill-opacity: 0.75; stroke: #000000; stroke-width: 0.358397; stroke-linejoin: miter"/>
   </g>
   <g id="patch_58">
    <path d="M 255.724068 317.93875 
L 259.199009 317.93875 
L 259.199009 88.159137 
L 255.724068 88.159137 
z
" clip-path="url(#p516696e1d8)" style="fill: #1f77b4; fill-opacity: 0.75; stroke: #000000; stroke-width: 0.358397; stroke-linejoin: miter"/>
   </g>
   <g id="patch_59">
    <path d="M 259.199009 317.93875 
L 262.673951 317.93875 
L 262.673951 25.425655 
L 259.199009 25.425655 
z
" clip-path="url(#p516696e1d8)" style="fill: #1f77b4; fill-opacity: 0.75; stroke: #000000; stroke-width: 0.358397; stroke-linejoin: miter"/>
   </g>
   <g id="patch_60">
    <path d="M 262.673951 317.93875 
L 266.148893 317.93875 
L 266.148893 142.868568 
L 262.673951 142.868568 
z
" clip-path="url(#p516696e1d8)" style="fill: #1f77b4; fill-opacity: 0.75; stroke: #000000; stroke-width: 0.358397; stroke-linejoin: miter"/>
   </g>
   <g id="patch_61">
    <path d="M 266.148893 317.93875 
L 269.623834 317.93875 
L 269.623834 95.088998 
L 266.148893 95.088998 
z
" clip-path="url(#p516696e1d8)" style="fill: #1f77b4; fill-opacity: 0.75; stroke: #000000; stroke-width: 0.358397; stroke-linejoin: miter"/>
   </g>
   <g id="patch_62">
    <path d="M 269.623834 317.93875 
L 273.098776 317.93875 
L 273.098776 94.724268 
L 269.623834 94.724268 
z
" clip-path="url(#p516696e1d8)" style="fill: #1f77b4; fill-opacity: 0.75; stroke: #000000; stroke-width: 0.358397; stroke-linejoin: miter"/>
   </g>
   <g id="patch_63">
    <path d="M 273.098776 317.93875 
L 276.573718 317.93875 
L 276.573718 107.854532 
L 273.098776 107.854532 
z
" clip-path="url(#p516696e1d8)" style="fill: #1f77b4; fill-opacity: 0.75; stroke: #000000; stroke-width: 0.358397; stroke-linejoin: miter"/>
   </g>
   <g id="patch_64">
    <path d="M 276.573718 317.93875 
L 280.04866 317.93875 
L 280.04866 110.407639 
L 276.573718 110.407639 
z
" clip-path="url(#p516696e1d8)" style="fill: #1f77b4; fill-opacity: 0.75; stroke: #000000; stroke-width: 0.358397; stroke-linejoin: miter"/>
   </g>
   <g id="patch_65">
    <path d="M 280.04866 317.93875 
L 283.523601 317.93875 
L 283.523601 161.469775 
L 280.04866 161.469775 
z
" clip-path="url(#p516696e1d8)" style="fill: #1f77b4; fill-opacity: 0.75; stroke: #000000; stroke-width: 0.358397; stroke-linejoin: miter"/>
   </g>
   <g id="patch_66">
    <path d="M 283.523601 317.93875 
L 286.998543 317.93875 
L 286.998543 151.257348 
L 283.523601 151.257348 
z
" clip-path="url(#p516696e1d8)" style="fill: #1f77b4; fill-opacity: 0.75; stroke: #000000; stroke-width: 0.358397; stroke-linejoin: miter"/>
   </g>
   <g id="patch_67">
    <path d="M 286.998543 317.93875 
L 290.473485 317.93875 
L 290.473485 219.461773 
L 286.998543 219.461773 
z
" clip-path="url(#p516696e1d8)" style="fill: #1f77b4; fill-opacity: 0.75; stroke: #000000; stroke-width: 0.358397; stroke-linejoin: miter"/>
   </g>
   <g id="patch_68">
    <path d="M 290.473485 317.93875 
L 293.948427 317.93875 
L 293.948427 169.858555 
L 290.473485 169.858555 
z
" clip-path="url(#p516696e1d8)" style="fill: #1f77b4; fill-opacity: 0.75; stroke: #000000; stroke-width: 0.358397; stroke-linejoin: miter"/>
   </g>
   <g id="patch_69">
    <path d="M 293.948427 317.93875 
L 297.423368 317.93875 
L 297.423368 222.01488 
L 293.948427 222.01488 
z
" clip-path="url(#p516696e1d8)" style="fill: #1f77b4; fill-opacity: 0.75; stroke: #000000; stroke-width: 0.358397; stroke-linejoin: miter"/>
   </g>
   <g id="patch_70">
    <path d="M 297.423368 317.93875 
L 300.89831 317.93875 
L 300.89831 182.624089 
L 297.423368 182.624089 
z
" clip-path="url(#p516696e1d8)" style="fill: #1f77b4; fill-opacity: 0.75; stroke: #000000; stroke-width: 0.358397; stroke-linejoin: miter"/>
   </g>
   <g id="patch_71">
    <path d="M 300.89831 317.93875 
L 304.373252 317.93875 
L 304.373252 226.756364 
L 300.89831 226.756364 
z
" clip-path="url(#p516696e1d8)" style="fill: #1f77b4; fill-opacity: 0.75; stroke: #000000; stroke-width: 0.358397; stroke-linejoin: miter"/>
   </g>
   <g id="patch_72">
    <path d="M 304.373252 317.93875 
L 307.848193 317.93875 
L 307.848193 254.11108 
L 304.373252 254.11108 
z
" clip-path="url(#p516696e1d8)" style="fill: #1f77b4; fill-opacity: 0.75; stroke: #000000; stroke-width: 0.358397; stroke-linejoin: miter"/>
   </g>
   <g id="patch_73">
    <path d="M 307.848193 317.93875 
L 311.323135 317.93875 
L 311.323135 233.321496 
L 307.848193 233.321496 
z
" clip-path="url(#p516696e1d8)" style="fill: #1f77b4; fill-opacity: 0.75; stroke: #000000; stroke-width: 0.358397; stroke-linejoin: miter"/>
   </g>
   <g id="patch_74">
    <path d="M 311.323135 317.93875 
L 314.798077 317.93875 
L 314.798077 240.980816 
L 311.323135 240.980816 
z
" clip-path="url(#p516696e1d8)" style="fill: #1f77b4; fill-opacity: 0.75; stroke: #000000; stroke-width: 0.358397; stroke-linejoin: miter"/>
   </g>
   <g id="patch_75">
    <path d="M 314.798077 317.93875 
L 318.273019 317.93875 
L 318.273019 271.618098 
L 314.798077 271.618098 
z
" clip-path="url(#p516696e1d8)" style="fill: #1f77b4; fill-opacity: 0.75; stroke: #000000; stroke-width: 0.358397; stroke-linejoin: miter"/>
   </g>
   <g id="patch_76">
    <path d="M 318.273019 317.93875 
L 321.74796 317.93875 
L 321.74796 257.758375 
L 318.273019 257.758375 
z
" clip-path="url(#p516696e1d8)" style="fill: #1f77b4; fill-opacity: 0.75; stroke: #000000; stroke-width: 0.358397; stroke-linejoin: miter"/>
   </g>
   <g id="patch_77">
    <path d="M 321.74796 317.93875 
L 325.222902 317.93875 
L 325.222902 267.606073 
L 321.74796 267.606073 
z
" clip-path="url(#p516696e1d8)" style="fill: #1f77b4; fill-opacity: 0.75; stroke: #000000; stroke-width: 0.358397; stroke-linejoin: miter"/>
   </g>
   <g id="patch_78">
    <path d="M 325.222902 317.93875 
L 328.697844 317.93875 
L 328.697844 256.664186 
L 325.222902 256.664186 
z
" clip-path="url(#p516696e1d8)" style="fill: #1f77b4; fill-opacity: 0.75; stroke: #000000; stroke-width: 0.358397; stroke-linejoin: miter"/>
   </g>
   <g id="patch_79">
    <path d="M 328.697844 317.93875 
L 332.172786 317.93875 
L 332.172786 292.042952 
L 328.697844 292.042952 
z
" clip-path="url(#p516696e1d8)" style="fill: #1f77b4; fill-opacity: 0.75; stroke: #000000; stroke-width: 0.358397; stroke-linejoin: miter"/>
   </g>
   <g id="patch_80">
    <path d="M 332.172786 317.93875 
L 335.647727 317.93875 
L 335.647727 265.052966 
L 332.172786 265.052966 
z
" clip-path="url(#p516696e1d8)" style="fill: #1f77b4; fill-opacity: 0.75; stroke: #000000; stroke-width: 0.358397; stroke-linejoin: miter"/>
   </g>
   <g id="matplotlib.axis_1">
    <g id="xtick_1">
     <g id="line2d_1">
      <defs>
       <path id="m5315f14aaa" d="M 0 0 
L 0 3.5 
" style="stroke: #000000; stroke-width: 0.8"/>
      </defs>
      <g>
       <use xlink:href="#m5315f14aaa" x="70.410902" y="317.93875" style="stroke: #000000; stroke-width: 0.8"/>
      </g>
     </g>
     <g id="text_1">
      <!-- 20 -->
      <g transform="translate(64.048402 332.537188) scale(0.1 -0.1)">
       <defs>
        <path id="DejaVuSans-32" d="M 1228 531 
L 3431 531 
L 3431 0 
L 469 0 
L 469 531 
Q 828 903 1448 1529 
Q 2069 2156 2228 2338 
Q 2531 2678 2651 2914 
Q 2772 3150 2772 3378 
Q 2772 3750 2511 3984 
Q 2250 4219 1831 4219 
Q 1534 4219 1204 4116 
Q 875 4013 500 3803 
L 500 4441 
Q 881 4594 1212 4672 
Q 1544 4750 1819 4750 
Q 2544 4750 2975 4387 
Q 3406 4025 3406 3419 
Q 3406 3131 3298 2873 
Q 3191 2616 2906 2266 
Q 2828 2175 2409 1742 
Q 1991 1309 1228 531 
z
" transform="scale(0.015625)"/>
        <path id="DejaVuSans-30" d="M 2034 4250 
Q 1547 4250 1301 3770 
Q 1056 3291 1056 2328 
Q 1056 1369 1301 889 
Q 1547 409 2034 409 
Q 2525 409 2770 889 
Q 3016 1369 3016 2328 
Q 3016 3291 2770 3770 
Q 2525 4250 2034 4250 
z
M 2034 4750 
Q 2819 4750 3233 4129 
Q 3647 3509 3647 2328 
Q 3647 1150 3233 529 
Q 2819 -91 2034 -91 
Q 1250 -91 836 529 
Q 422 1150 422 2328 
Q 422 3509 836 4129 
Q 1250 4750 2034 4750 
z
" transform="scale(0.015625)"/>
       </defs>
       <use xlink:href="#DejaVuSans-32"/>
       <use xlink:href="#DejaVuSans-30" x="63.623047"/>
      </g>
     </g>
    </g>
    <g id="xtick_2">
     <g id="line2d_2">
      <g>
       <use xlink:href="#m5315f14aaa" x="119.895551" y="317.93875" style="stroke: #000000; stroke-width: 0.8"/>
      </g>
     </g>
     <g id="text_2">
      <!-- 30 -->
      <g transform="translate(113.533051 332.537188) scale(0.1 -0.1)">
       <defs>
        <path id="DejaVuSans-33" d="M 2597 2516 
Q 3050 2419 3304 2112 
Q 3559 1806 3559 1356 
Q 3559 666 3084 287 
Q 2609 -91 1734 -91 
Q 1441 -91 1130 -33 
Q 819 25 488 141 
L 488 750 
Q 750 597 1062 519 
Q 1375 441 1716 441 
Q 2309 441 2620 675 
Q 2931 909 2931 1356 
Q 2931 1769 2642 2001 
Q 2353 2234 1838 2234 
L 1294 2234 
L 1294 2753 
L 1863 2753 
Q 2328 2753 2575 2939 
Q 2822 3125 2822 3475 
Q 2822 3834 2567 4026 
Q 2313 4219 1838 4219 
Q 1578 4219 1281 4162 
Q 984 4106 628 3988 
L 628 4550 
Q 988 4650 1302 4700 
Q 1616 4750 1894 4750 
Q 2613 4750 3031 4423 
Q 3450 4097 3450 3541 
Q 3450 3153 3228 2886 
Q 3006 2619 2597 2516 
z
" transform="scale(0.015625)"/>
       </defs>
       <use xlink:href="#DejaVuSans-33"/>
       <use xlink:href="#DejaVuSans-30" x="63.623047"/>
      </g>
     </g>
    </g>
    <g id="xtick_3">
     <g id="line2d_3">
      <g>
       <use xlink:href="#m5315f14aaa" x="169.3802" y="317.93875" style="stroke: #000000; stroke-width: 0.8"/>
      </g>
     </g>
     <g id="text_3">
      <!-- 40 -->
      <g transform="translate(163.0177 332.537188) scale(0.1 -0.1)">
       <defs>
        <path id="DejaVuSans-34" d="M 2419 4116 
L 825 1625 
L 2419 1625 
L 2419 4116 
z
M 2253 4666 
L 3047 4666 
L 3047 1625 
L 3713 1625 
L 3713 1100 
L 3047 1100 
L 3047 0 
L 2419 0 
L 2419 1100 
L 313 1100 
L 313 1709 
L 2253 4666 
z
" transform="scale(0.015625)"/>
       </defs>
       <use xlink:href="#DejaVuSans-34"/>
       <use xlink:href="#DejaVuSans-30" x="63.623047"/>
      </g>
     </g>
    </g>
    <g id="xtick_4">
     <g id="line2d_4">
      <g>
       <use xlink:href="#m5315f14aaa" x="218.864849" y="317.93875" style="stroke: #000000; stroke-width: 0.8"/>
      </g>
     </g>
     <g id="text_4">
      <!-- 50 -->
      <g transform="translate(212.502349 332.537188) scale(0.1 -0.1)">
       <defs>
        <path id="DejaVuSans-35" d="M 691 4666 
L 3169 4666 
L 3169 4134 
L 1269 4134 
L 1269 2991 
Q 1406 3038 1543 3061 
Q 1681 3084 1819 3084 
Q 2600 3084 3056 2656 
Q 3513 2228 3513 1497 
Q 3513 744 3044 326 
Q 2575 -91 1722 -91 
Q 1428 -91 1123 -41 
Q 819 9 494 109 
L 494 744 
Q 775 591 1075 516 
Q 1375 441 1709 441 
Q 2250 441 2565 725 
Q 2881 1009 2881 1497 
Q 2881 1984 2565 2268 
Q 2250 2553 1709 2553 
Q 1456 2553 1204 2497 
Q 953 2441 691 2322 
L 691 4666 
z
" transform="scale(0.015625)"/>
       </defs>
       <use xlink:href="#DejaVuSans-35"/>
       <use xlink:href="#DejaVuSans-30" x="63.623047"/>
      </g>
     </g>
    </g>
    <g id="xtick_5">
     <g id="line2d_5">
      <g>
       <use xlink:href="#m5315f14aaa" x="268.349499" y="317.93875" style="stroke: #000000; stroke-width: 0.8"/>
      </g>
     </g>
     <g id="text_5">
      <!-- 60 -->
      <g transform="translate(261.986999 332.537188) scale(0.1 -0.1)">
       <defs>
        <path id="DejaVuSans-36" d="M 2113 2584 
Q 1688 2584 1439 2293 
Q 1191 2003 1191 1497 
Q 1191 994 1439 701 
Q 1688 409 2113 409 
Q 2538 409 2786 701 
Q 3034 994 3034 1497 
Q 3034 2003 2786 2293 
Q 2538 2584 2113 2584 
z
M 3366 4563 
L 3366 3988 
Q 3128 4100 2886 4159 
Q 2644 4219 2406 4219 
Q 1781 4219 1451 3797 
Q 1122 3375 1075 2522 
Q 1259 2794 1537 2939 
Q 1816 3084 2150 3084 
Q 2853 3084 3261 2657 
Q 3669 2231 3669 1497 
Q 3669 778 3244 343 
Q 2819 -91 2113 -91 
Q 1303 -91 875 529 
Q 447 1150 447 2328 
Q 447 3434 972 4092 
Q 1497 4750 2381 4750 
Q 2619 4750 2861 4703 
Q 3103 4656 3366 4563 
z
" transform="scale(0.015625)"/>
       </defs>
       <use xlink:href="#DejaVuSans-36"/>
       <use xlink:href="#DejaVuSans-30" x="63.623047"/>
      </g>
     </g>
    </g>
    <g id="xtick_6">
     <g id="line2d_6">
      <g>
       <use xlink:href="#m5315f14aaa" x="317.834148" y="317.93875" style="stroke: #000000; stroke-width: 0.8"/>
      </g>
     </g>
     <g id="text_6">
      <!-- 70 -->
      <g transform="translate(311.471648 332.537188) scale(0.1 -0.1)">
       <defs>
        <path id="DejaVuSans-37" d="M 525 4666 
L 3525 4666 
L 3525 4397 
L 1831 0 
L 1172 0 
L 2766 4134 
L 525 4134 
L 525 4666 
z
" transform="scale(0.015625)"/>
       </defs>
       <use xlink:href="#DejaVuSans-37"/>
       <use xlink:href="#DejaVuSans-30" x="63.623047"/>
      </g>
     </g>
    </g>
    <g id="text_7">
     <!-- price_corrected -->
     <g transform="translate(161.424219 346.215312) scale(0.1 -0.1)">
      <defs>
       <path id="DejaVuSans-70" d="M 1159 525 
L 1159 -1331 
L 581 -1331 
L 581 3500 
L 1159 3500 
L 1159 2969 
Q 1341 3281 1617 3432 
Q 1894 3584 2278 3584 
Q 2916 3584 3314 3078 
Q 3713 2572 3713 1747 
Q 3713 922 3314 415 
Q 2916 -91 2278 -91 
Q 1894 -91 1617 61 
Q 1341 213 1159 525 
z
M 3116 1747 
Q 3116 2381 2855 2742 
Q 2594 3103 2138 3103 
Q 1681 3103 1420 2742 
Q 1159 2381 1159 1747 
Q 1159 1113 1420 752 
Q 1681 391 2138 391 
Q 2594 391 2855 752 
Q 3116 1113 3116 1747 
z
" transform="scale(0.015625)"/>
       <path id="DejaVuSans-72" d="M 2631 2963 
Q 2534 3019 2420 3045 
Q 2306 3072 2169 3072 
Q 1681 3072 1420 2755 
Q 1159 2438 1159 1844 
L 1159 0 
L 581 0 
L 581 3500 
L 1159 3500 
L 1159 2956 
Q 1341 3275 1631 3429 
Q 1922 3584 2338 3584 
Q 2397 3584 2469 3576 
Q 2541 3569 2628 3553 
L 2631 2963 
z
" transform="scale(0.015625)"/>
       <path id="DejaVuSans-69" d="M 603 3500 
L 1178 3500 
L 1178 0 
L 603 0 
L 603 3500 
z
M 603 4863 
L 1178 4863 
L 1178 4134 
L 603 4134 
L 603 4863 
z
" transform="scale(0.015625)"/>
       <path id="DejaVuSans-63" d="M 3122 3366 
L 3122 2828 
Q 2878 2963 2633 3030 
Q 2388 3097 2138 3097 
Q 1578 3097 1268 2742 
Q 959 2388 959 1747 
Q 959 1106 1268 751 
Q 1578 397 2138 397 
Q 2388 397 2633 464 
Q 2878 531 3122 666 
L 3122 134 
Q 2881 22 2623 -34 
Q 2366 -91 2075 -91 
Q 1284 -91 818 406 
Q 353 903 353 1747 
Q 353 2603 823 3093 
Q 1294 3584 2113 3584 
Q 2378 3584 2631 3529 
Q 2884 3475 3122 3366 
z
" transform="scale(0.015625)"/>
       <path id="DejaVuSans-65" d="M 3597 1894 
L 3597 1613 
L 953 1613 
Q 991 1019 1311 708 
Q 1631 397 2203 397 
Q 2534 397 2845 478 
Q 3156 559 3463 722 
L 3463 178 
Q 3153 47 2828 -22 
Q 2503 -91 2169 -91 
Q 1331 -91 842 396 
Q 353 884 353 1716 
Q 353 2575 817 3079 
Q 1281 3584 2069 3584 
Q 2775 3584 3186 3129 
Q 3597 2675 3597 1894 
z
M 3022 2063 
Q 3016 2534 2758 2815 
Q 2500 3097 2075 3097 
Q 1594 3097 1305 2825 
Q 1016 2553 972 2059 
L 3022 2063 
z
" transform="scale(0.015625)"/>
       <path id="DejaVuSans-5f" d="M 3263 -1063 
L 3263 -1509 
L -63 -1509 
L -63 -1063 
L 3263 -1063 
z
" transform="scale(0.015625)"/>
       <path id="DejaVuSans-6f" d="M 1959 3097 
Q 1497 3097 1228 2736 
Q 959 2375 959 1747 
Q 959 1119 1226 758 
Q 1494 397 1959 397 
Q 2419 397 2687 759 
Q 2956 1122 2956 1747 
Q 2956 2369 2687 2733 
Q 2419 3097 1959 3097 
z
M 1959 3584 
Q 2709 3584 3137 3096 
Q 3566 2609 3566 1747 
Q 3566 888 3137 398 
Q 2709 -91 1959 -91 
Q 1206 -91 779 398 
Q 353 888 353 1747 
Q 353 2609 779 3096 
Q 1206 3584 1959 3584 
z
" transform="scale(0.015625)"/>
       <path id="DejaVuSans-74" d="M 1172 4494 
L 1172 3500 
L 2356 3500 
L 2356 3053 
L 1172 3053 
L 1172 1153 
Q 1172 725 1289 603 
Q 1406 481 1766 481 
L 2356 481 
L 2356 0 
L 1766 0 
Q 1100 0 847 248 
Q 594 497 594 1153 
L 594 3053 
L 172 3053 
L 172 3500 
L 594 3500 
L 594 4494 
L 1172 4494 
z
" transform="scale(0.015625)"/>
       <path id="DejaVuSans-64" d="M 2906 2969 
L 2906 4863 
L 3481 4863 
L 3481 0 
L 2906 0 
L 2906 525 
Q 2725 213 2448 61 
Q 2172 -91 1784 -91 
Q 1150 -91 751 415 
Q 353 922 353 1747 
Q 353 2572 751 3078 
Q 1150 3584 1784 3584 
Q 2172 3584 2448 3432 
Q 2725 3281 2906 2969 
z
M 947 1747 
Q 947 1113 1208 752 
Q 1469 391 1925 391 
Q 2381 391 2643 752 
Q 2906 1113 2906 1747 
Q 2906 2381 2643 2742 
Q 2381 3103 1925 3103 
Q 1469 3103 1208 2742 
Q 947 2381 947 1747 
z
" transform="scale(0.015625)"/>
      </defs>
      <use xlink:href="#DejaVuSans-70"/>
      <use xlink:href="#DejaVuSans-72" x="63.476562"/>
      <use xlink:href="#DejaVuSans-69" x="104.589844"/>
      <use xlink:href="#DejaVuSans-63" x="132.373047"/>
      <use xlink:href="#DejaVuSans-65" x="187.353516"/>
      <use xlink:href="#DejaVuSans-5f" x="248.876953"/>
      <use xlink:href="#DejaVuSans-63" x="298.876953"/>
      <use xlink:href="#DejaVuSans-6f" x="353.857422"/>
      <use xlink:href="#DejaVuSans-72" x="415.039062"/>
      <use xlink:href="#DejaVuSans-72" x="454.402344"/>
      <use xlink:href="#DejaVuSans-65" x="493.265625"/>
      <use xlink:href="#DejaVuSans-63" x="554.789062"/>
      <use xlink:href="#DejaVuSans-74" x="609.769531"/>
      <use xlink:href="#DejaVuSans-65" x="648.978516"/>
      <use xlink:href="#DejaVuSans-64" x="710.501953"/>
     </g>
    </g>
   </g>
   <g id="matplotlib.axis_2">
    <g id="ytick_1">
     <g id="line2d_7">
      <defs>
       <path id="md545326780" d="M 0 0 
L -3.5 0 
" style="stroke: #000000; stroke-width: 0.8"/>
      </defs>
      <g>
       <use xlink:href="#md545326780" x="51.05" y="317.93875" style="stroke: #000000; stroke-width: 0.8"/>
      </g>
     </g>
     <g id="text_8">
      <!-- 0 -->
      <g transform="translate(37.6875 321.737969) scale(0.1 -0.1)">
       <use xlink:href="#DejaVuSans-30"/>
      </g>
     </g>
    </g>
    <g id="ytick_2">
     <g id="line2d_8">
      <g>
       <use xlink:href="#md545326780" x="51.05" y="281.465795" style="stroke: #000000; stroke-width: 0.8"/>
      </g>
     </g>
     <g id="text_9">
      <!-- 100 -->
      <g transform="translate(24.9625 285.265014) scale(0.1 -0.1)">
       <defs>
        <path id="DejaVuSans-31" d="M 794 531 
L 1825 531 
L 1825 4091 
L 703 3866 
L 703 4441 
L 1819 4666 
L 2450 4666 
L 2450 531 
L 3481 531 
L 3481 0 
L 794 0 
L 794 531 
z
" transform="scale(0.015625)"/>
       </defs>
       <use xlink:href="#DejaVuSans-31"/>
       <use xlink:href="#DejaVuSans-30" x="63.623047"/>
       <use xlink:href="#DejaVuSans-30" x="127.246094"/>
      </g>
     </g>
    </g>
    <g id="ytick_3">
     <g id="line2d_9">
      <g>
       <use xlink:href="#md545326780" x="51.05" y="244.992841" style="stroke: #000000; stroke-width: 0.8"/>
      </g>
     </g>
     <g id="text_10">
      <!-- 200 -->
      <g transform="translate(24.9625 248.79206) scale(0.1 -0.1)">
       <use xlink:href="#DejaVuSans-32"/>
       <use xlink:href="#DejaVuSans-30" x="63.623047"/>
       <use xlink:href="#DejaVuSans-30" x="127.246094"/>
      </g>
     </g>
    </g>
    <g id="ytick_4">
     <g id="line2d_10">
      <g>
       <use xlink:href="#md545326780" x="51.05" y="208.519886" style="stroke: #000000; stroke-width: 0.8"/>
      </g>
     </g>
     <g id="text_11">
      <!-- 300 -->
      <g transform="translate(24.9625 212.319105) scale(0.1 -0.1)">
       <use xlink:href="#DejaVuSans-33"/>
       <use xlink:href="#DejaVuSans-30" x="63.623047"/>
       <use xlink:href="#DejaVuSans-30" x="127.246094"/>
      </g>
     </g>
    </g>
    <g id="ytick_5">
     <g id="line2d_11">
      <g>
       <use xlink:href="#md545326780" x="51.05" y="172.046932" style="stroke: #000000; stroke-width: 0.8"/>
      </g>
     </g>
     <g id="text_12">
      <!-- 400 -->
      <g transform="translate(24.9625 175.846151) scale(0.1 -0.1)">
       <use xlink:href="#DejaVuSans-34"/>
       <use xlink:href="#DejaVuSans-30" x="63.623047"/>
       <use xlink:href="#DejaVuSans-30" x="127.246094"/>
      </g>
     </g>
    </g>
    <g id="ytick_6">
     <g id="line2d_12">
      <g>
       <use xlink:href="#md545326780" x="51.05" y="135.573977" style="stroke: #000000; stroke-width: 0.8"/>
      </g>
     </g>
     <g id="text_13">
      <!-- 500 -->
      <g transform="translate(24.9625 139.373196) scale(0.1 -0.1)">
       <use xlink:href="#DejaVuSans-35"/>
       <use xlink:href="#DejaVuSans-30" x="63.623047"/>
       <use xlink:href="#DejaVuSans-30" x="127.246094"/>
      </g>
     </g>
    </g>
    <g id="ytick_7">
     <g id="line2d_13">
      <g>
       <use xlink:href="#md545326780" x="51.05" y="99.101023" style="stroke: #000000; stroke-width: 0.8"/>
      </g>
     </g>
     <g id="text_14">
      <!-- 600 -->
      <g transform="translate(24.9625 102.900242) scale(0.1 -0.1)">
       <use xlink:href="#DejaVuSans-36"/>
       <use xlink:href="#DejaVuSans-30" x="63.623047"/>
       <use xlink:href="#DejaVuSans-30" x="127.246094"/>
      </g>
     </g>
    </g>
    <g id="ytick_8">
     <g id="line2d_14">
      <g>
       <use xlink:href="#md545326780" x="51.05" y="62.628068" style="stroke: #000000; stroke-width: 0.8"/>
      </g>
     </g>
     <g id="text_15">
      <!-- 700 -->
      <g transform="translate(24.9625 66.427287) scale(0.1 -0.1)">
       <use xlink:href="#DejaVuSans-37"/>
       <use xlink:href="#DejaVuSans-30" x="63.623047"/>
       <use xlink:href="#DejaVuSans-30" x="127.246094"/>
      </g>
     </g>
    </g>
    <g id="ytick_9">
     <g id="line2d_15">
      <g>
       <use xlink:href="#md545326780" x="51.05" y="26.155114" style="stroke: #000000; stroke-width: 0.8"/>
      </g>
     </g>
     <g id="text_16">
      <!-- 800 -->
      <g transform="translate(24.9625 29.954333) scale(0.1 -0.1)">
       <defs>
        <path id="DejaVuSans-38" d="M 2034 2216 
Q 1584 2216 1326 1975 
Q 1069 1734 1069 1313 
Q 1069 891 1326 650 
Q 1584 409 2034 409 
Q 2484 409 2743 651 
Q 3003 894 3003 1313 
Q 3003 1734 2745 1975 
Q 2488 2216 2034 2216 
z
M 1403 2484 
Q 997 2584 770 2862 
Q 544 3141 544 3541 
Q 544 4100 942 4425 
Q 1341 4750 2034 4750 
Q 2731 4750 3128 4425 
Q 3525 4100 3525 3541 
Q 3525 3141 3298 2862 
Q 3072 2584 2669 2484 
Q 3125 2378 3379 2068 
Q 3634 1759 3634 1313 
Q 3634 634 3220 271 
Q 2806 -91 2034 -91 
Q 1263 -91 848 271 
Q 434 634 434 1313 
Q 434 1759 690 2068 
Q 947 2378 1403 2484 
z
M 1172 3481 
Q 1172 3119 1398 2916 
Q 1625 2713 2034 2713 
Q 2441 2713 2670 2916 
Q 2900 3119 2900 3481 
Q 2900 3844 2670 4047 
Q 2441 4250 2034 4250 
Q 1625 4250 1398 4047 
Q 1172 3844 1172 3481 
z
" transform="scale(0.015625)"/>
       </defs>
       <use xlink:href="#DejaVuSans-38"/>
       <use xlink:href="#DejaVuSans-30" x="63.623047"/>
       <use xlink:href="#DejaVuSans-30" x="127.246094"/>
      </g>
     </g>
    </g>
    <g id="text_17">
     <!-- Count -->
     <g transform="translate(18.882812 179.217813) rotate(-90) scale(0.1 -0.1)">
      <defs>
       <path id="DejaVuSans-43" d="M 4122 4306 
L 4122 3641 
Q 3803 3938 3442 4084 
Q 3081 4231 2675 4231 
Q 1875 4231 1450 3742 
Q 1025 3253 1025 2328 
Q 1025 1406 1450 917 
Q 1875 428 2675 428 
Q 3081 428 3442 575 
Q 3803 722 4122 1019 
L 4122 359 
Q 3791 134 3420 21 
Q 3050 -91 2638 -91 
Q 1578 -91 968 557 
Q 359 1206 359 2328 
Q 359 3453 968 4101 
Q 1578 4750 2638 4750 
Q 3056 4750 3426 4639 
Q 3797 4528 4122 4306 
z
" transform="scale(0.015625)"/>
       <path id="DejaVuSans-75" d="M 544 1381 
L 544 3500 
L 1119 3500 
L 1119 1403 
Q 1119 906 1312 657 
Q 1506 409 1894 409 
Q 2359 409 2629 706 
Q 2900 1003 2900 1516 
L 2900 3500 
L 3475 3500 
L 3475 0 
L 2900 0 
L 2900 538 
Q 2691 219 2414 64 
Q 2138 -91 1772 -91 
Q 1169 -91 856 284 
Q 544 659 544 1381 
z
M 1991 3584 
L 1991 3584 
z
" transform="scale(0.015625)"/>
       <path id="DejaVuSans-6e" d="M 3513 2113 
L 3513 0 
L 2938 0 
L 2938 2094 
Q 2938 2591 2744 2837 
Q 2550 3084 2163 3084 
Q 1697 3084 1428 2787 
Q 1159 2491 1159 1978 
L 1159 0 
L 581 0 
L 581 3500 
L 1159 3500 
L 1159 2956 
Q 1366 3272 1645 3428 
Q 1925 3584 2291 3584 
Q 2894 3584 3203 3211 
Q 3513 2838 3513 2113 
z
" transform="scale(0.015625)"/>
      </defs>
      <use xlink:href="#DejaVuSans-43"/>
      <use xlink:href="#DejaVuSans-6f" x="69.824219"/>
      <use xlink:href="#DejaVuSans-75" x="131.005859"/>
      <use xlink:href="#DejaVuSans-6e" x="194.384766"/>
      <use xlink:href="#DejaVuSans-74" x="257.763672"/>
     </g>
    </g>
   </g>
   <g id="patch_81">
    <path d="M 51.05 317.93875 
L 51.05 10.8 
" style="fill: none; stroke: #000000; stroke-width: 0.8; stroke-linejoin: miter; stroke-linecap: square"/>
   </g>
   <g id="patch_82">
    <path d="M 51.05 317.93875 
L 349.2 317.93875 
" style="fill: none; stroke: #000000; stroke-width: 0.8; stroke-linejoin: miter; stroke-linecap: square"/>
   </g>
  </g>
 </g>
 <defs>
  <clipPath id="p516696e1d8">
   <rect x="51.05" y="10.8" width="298.15" height="307.13875"/>
  </clipPath>
 </defs>
</svg>
